/*
 *  Created on: Apr 11, 2017
 *  Author: Sid Parida
 */
 
// This file contains MIDI data of different songs

#ifndef SONG_FILE_H_
#define SONG_FILE_H_

// Fade to Black
unsigned char song1[1024] =
{
		0x4D, 0x54, 0x68, 0x64, 0x00, 0x00, 0x00, 0x06, 0x00, 0x01, 0x00, 0x0E,
			0x01, 0x80, 0x4D, 0x54, 0x72, 0x6B, 0x00, 0x00, 0x00, 0x13, 0x00, 0xFF,
			0x58, 0x04, 0x04, 0x02, 0x18, 0x08, 0x00, 0xFF, 0x51, 0x03, 0x04, 0x29,
			0x57, 0x00, 0xFF, 0x2F, 0x00, 0x4D, 0x54, 0x72, 0x6B, 0x00, 0x00, 0x00,
			0x19, 0x00, 0xFF, 0x03, 0x0E, 0x45, 0x6C, 0x65, 0x63, 0x74, 0x72, 0x69,
			0x63, 0x20, 0x50, 0x69, 0x61, 0x6E, 0x6F, 0x00, 0xC0, 0x00, 0x00, 0xFF,
			0x2F, 0x00, 0x4D, 0x54, 0x72, 0x6B, 0x00, 0x00, 0x01, 0x59, 0x00, 0xFF,
			0x03, 0x0F, 0x41, 0x63, 0x6F, 0x75, 0x73, 0x74, 0x69, 0x63, 0x20, 0x47,
			0x75, 0x69, 0x74, 0x61, 0x72, 0x00, 0xC1, 0x18, 0x00, 0x91, 0x23, 0x32,
			0x81, 0x40, 0x81, 0x23, 0x00, 0x81, 0x40, 0x91, 0x2A, 0x32, 0x81, 0x40,
			0x81, 0x2A, 0x00, 0x81, 0x40, 0x91, 0x2B, 0x32, 0x81, 0x40, 0x81, 0x2B,
			0x00, 0x81, 0x40, 0x91, 0x2A, 0x32, 0x81, 0x40, 0x81, 0x2A, 0x00, 0x81,
			0x40, 0x91, 0x23, 0x32, 0x81, 0x40, 0x81, 0x23, 0x00, 0x81, 0x40, 0x91,
			0x2A, 0x32, 0x81, 0x40, 0x81, 0x2A, 0x00, 0x81, 0x40, 0x91, 0x26, 0x32,
			0x81, 0x40, 0x81, 0x26, 0x00, 0x81, 0x40, 0x91, 0x2A, 0x32, 0x81, 0x40,
			0x81, 0x2A, 0x00, 0x81, 0x40, 0x91, 0x21, 0x32, 0x81, 0x40, 0x81, 0x21,
			0x00, 0x81, 0x40, 0x91, 0x2A, 0x32, 0x81, 0x40, 0x81, 0x2A, 0x00, 0x81,
			0x40, 0x91, 0x2B, 0x32, 0x81, 0x40, 0x81, 0x2B, 0x00, 0x81, 0x40, 0x91,
			0x2A, 0x32, 0x81, 0x40, 0x81, 0x2A, 0x00, 0x81, 0x40, 0x91, 0x21, 0x32,
			0x81, 0x40, 0x81, 0x21, 0x00, 0x81, 0x40, 0x91, 0x2A, 0x32, 0x81, 0x40,
			0x81, 0x2A, 0x00, 0x81, 0x40, 0x91, 0x26, 0x32, 0x81, 0x40, 0x81, 0x26,
			0x00, 0x81, 0x40, 0x91, 0x2A, 0x32, 0x81, 0x40, 0x81, 0x2A, 0x00, 0x81,
			0x40, 0x91, 0x23, 0x32, 0x81, 0x40, 0x81, 0x23, 0x00, 0x81, 0x40, 0x91,
			0x2A, 0x32, 0x81, 0x40, 0x81, 0x2A, 0x00, 0x81, 0x40, 0x91, 0x2B, 0x32,
			0x81, 0x40, 0x81, 0x2B, 0x00, 0x81, 0x40, 0x91, 0x2A, 0x32, 0x81, 0x40,
			0x81, 0x2A, 0x00, 0x81, 0x40, 0x91, 0x23, 0x32, 0x81, 0x40, 0x81, 0x23,
			0x00, 0x81, 0x40, 0x91, 0x2A, 0x32, 0x81, 0x40, 0x81, 0x2A, 0x00, 0x81,
			0x40, 0x91, 0x26, 0x32, 0x81, 0x40, 0x81, 0x26, 0x00, 0x81, 0x40, 0x91,
			0x2A, 0x32, 0x81, 0x40, 0x81, 0x2A, 0x00, 0x81, 0x40, 0x91, 0x25, 0x32,
			0x81, 0x40, 0x81, 0x25, 0x00, 0x81, 0x40, 0x91, 0x28, 0x32, 0x81, 0x40,
			0x81, 0x28, 0x00, 0x81, 0x40, 0x91, 0x2D, 0x32, 0x81, 0x40, 0x81, 0x2D,
			0x00, 0x81, 0x40, 0x91, 0x28, 0x32, 0x81, 0x40, 0x81, 0x28, 0x00, 0x81,
			0x40, 0x91, 0x25, 0x32, 0x81, 0x40, 0x81, 0x25, 0x00, 0x81, 0x40, 0x91,
			0x28, 0x32, 0x81, 0x40, 0x81, 0x28, 0x00, 0x81, 0x40, 0x91, 0x21, 0x32,
			0x81, 0x40, 0x81, 0x21, 0x00, 0x81, 0x40, 0x91, 0x28, 0x32, 0x81, 0x40,
			0x81, 0x28, 0x00, 0x00, 0xFF, 0x2F, 0x00, 0x4D, 0x54, 0x72, 0x6B, 0x00,
			0x00, 0x00, 0x15, 0x00, 0xFF, 0x03, 0x0A, 0x50, 0x65, 0x72, 0x63, 0x75,
			0x73, 0x73, 0x69, 0x6F, 0x6E, 0x00, 0xC9, 0x00, 0x00, 0xFF, 0x2F, 0x00,
			0x4D, 0x54, 0x72, 0x6B, 0x00, 0x00, 0x00, 0x17, 0x00, 0xFF, 0x03, 0x0C,
			0x53, 0x6D, 0x6F, 0x6F, 0x74, 0x68, 0x20, 0x53, 0x79, 0x6E, 0x74, 0x68,
			0x00, 0xC3, 0x50, 0x00, 0xFF, 0x2F, 0x00, 0x4D, 0x54, 0x72, 0x6B, 0x00,
			0x00, 0x00, 0x1A, 0x00, 0xFF, 0x03, 0x0F, 0x45, 0x6C, 0x65, 0x63, 0x74,
			0x72, 0x69, 0x63, 0x20, 0x47, 0x75, 0x69, 0x74, 0x61, 0x72, 0x00, 0xC4,
			0x1D, 0x00, 0xFF, 0x2F, 0x00, 0x4D, 0x54, 0x72, 0x6B, 0x00, 0x00, 0x00,
			0x0F, 0x00, 0xFF, 0x03, 0x04, 0x42, 0x61, 0x73, 0x73, 0x00, 0xC5, 0x20,
			0x00, 0xFF, 0x2F, 0x00, 0x4D, 0x54, 0x72, 0x6B, 0x00, 0x00, 0x00, 0x16,
			0x00, 0xFF, 0x03, 0x0B, 0x53, 0x79, 0x6E, 0x74, 0x68, 0x20, 0x50, 0x6C,
			0x75, 0x63, 0x6B, 0x00, 0xC6, 0x57, 0x00, 0xFF, 0x2F, 0x00, 0x4D, 0x54,
			0x72, 0x6B, 0x00, 0x00, 0x00, 0x10, 0x00, 0xFF, 0x03, 0x05, 0x53, 0x63,
			0x69, 0x66, 0x69, 0x00, 0xC7, 0x63, 0x00, 0xFF, 0x2F, 0x00, 0x4D, 0x54,
			0x72, 0x6B, 0x00, 0x00, 0x00, 0x16, 0x00, 0xFF, 0x03, 0x0B, 0x47, 0x72,
			0x61, 0x6E, 0x64, 0x20, 0x50, 0x69, 0x61, 0x6E, 0x6F, 0x00, 0xC8, 0x00,
			0x00, 0xFF, 0x2F, 0x00, 0x4D, 0x54, 0x72, 0x6B, 0x00, 0x00, 0x00, 0x16,
			0x00, 0xFF, 0x03, 0x0B, 0x46, 0x72, 0x65, 0x6E, 0x63, 0x68, 0x20, 0x48,
			0x6F, 0x72, 0x6E, 0x00, 0xC2, 0x3C, 0x00, 0xFF, 0x2F, 0x00, 0x4D, 0x54,
			0x72, 0x6B, 0x00, 0x00, 0x00, 0x13, 0x00, 0xFF, 0x03, 0x08, 0x54, 0x72,
			0x6F, 0x6D, 0x62, 0x6F, 0x6E, 0x65, 0x00, 0xCA, 0x39, 0x00, 0xFF, 0x2F,
			0x00, 0x4D, 0x54, 0x72, 0x6B, 0x00, 0x00, 0x00, 0x11, 0x00, 0xFF, 0x03,
			0x06, 0x56, 0x69, 0x6F, 0x6C, 0x69, 0x6E, 0x00, 0xCB, 0x28, 0x00, 0xFF,
			0x2F, 0x00, 0x4D, 0x54, 0x72, 0x6B, 0x00, 0x00, 0x00, 0x10, 0x00, 0xFF,
			0x03, 0x05, 0x43, 0x65, 0x6C, 0x6C, 0x6F, 0x00, 0xCC, 0x2A, 0x00, 0xFF,
			0x2F, 0x00
};

// Fast Arpeggio
unsigned char song2[1024] =
{
		0x4D, 0x54, 0x68, 0x64, 0x00, 0x00, 0x00, 0x06, 0x00, 0x01, 0x00, 0x0E,
		0x01, 0x80, 0x4D, 0x54, 0x72, 0x6B, 0x00, 0x00, 0x00, 0x13, 0x00, 0xFF,
		0x58, 0x04, 0x04, 0x02, 0x18, 0x08, 0x00, 0xFF, 0x51, 0x03, 0x08, 0x52,
		0xAE, 0x00, 0xFF, 0x2F, 0x00, 0x4D, 0x54, 0x72, 0x6B, 0x00, 0x00, 0x02,
		0x72, 0x00, 0xFF, 0x03, 0x0E, 0x45, 0x6C, 0x65, 0x63, 0x74, 0x72, 0x69,
		0x63, 0x20, 0x50, 0x69, 0x61, 0x6E, 0x6F, 0x00, 0xC0, 0x00, 0x00, 0x90,
		0x23, 0x32, 0x60, 0x80, 0x23, 0x00, 0x60, 0x90, 0x25, 0x32, 0x60, 0x80,
		0x25, 0x00, 0x60, 0x90, 0x2A, 0x32, 0x60, 0x80, 0x2A, 0x00, 0x60, 0x90,
		0x28, 0x32, 0x60, 0x80, 0x28, 0x00, 0x60, 0x90, 0x23, 0x32, 0x60, 0x80,
		0x23, 0x00, 0x60, 0x90, 0x25, 0x32, 0x60, 0x80, 0x25, 0x00, 0x60, 0x90,
		0x2A, 0x32, 0x60, 0x80, 0x2A, 0x00, 0x60, 0x90, 0x28, 0x32, 0x60, 0x80,
		0x28, 0x00, 0x60, 0x90, 0x23, 0x32, 0x60, 0x80, 0x23, 0x00, 0x60, 0x90,
		0x25, 0x32, 0x60, 0x80, 0x25, 0x00, 0x60, 0x90, 0x2A, 0x32, 0x60, 0x80,
		0x2A, 0x00, 0x60, 0x90, 0x28, 0x32, 0x60, 0x80, 0x28, 0x00, 0x60, 0x90,
		0x23, 0x32, 0x60, 0x80, 0x23, 0x00, 0x60, 0x90, 0x25, 0x32, 0x60, 0x80,
		0x25, 0x00, 0x60, 0x90, 0x2A, 0x32, 0x60, 0x80, 0x2A, 0x00, 0x60, 0x90,
		0x28, 0x32, 0x60, 0x80, 0x28, 0x00, 0x60, 0x90, 0x21, 0x32, 0x60, 0x80,
		0x21, 0x00, 0x60, 0x90, 0x25, 0x32, 0x60, 0x80, 0x25, 0x00, 0x60, 0x90,
		0x2A, 0x32, 0x60, 0x80, 0x2A, 0x00, 0x60, 0x90, 0x28, 0x32, 0x60, 0x80,
		0x28, 0x00, 0x60, 0x90, 0x21, 0x32, 0x60, 0x80, 0x21, 0x00, 0x60, 0x90,
		0x25, 0x32, 0x60, 0x80, 0x25, 0x00, 0x60, 0x90, 0x2A, 0x32, 0x60, 0x80,
		0x2A, 0x00, 0x60, 0x90, 0x28, 0x32, 0x60, 0x80, 0x28, 0x00, 0x60, 0x90,
		0x21, 0x32, 0x60, 0x80, 0x21, 0x00, 0x60, 0x90, 0x25, 0x32, 0x60, 0x80,
		0x25, 0x00, 0x60, 0x90, 0x2A, 0x32, 0x60, 0x80, 0x2A, 0x00, 0x60, 0x90,
		0x28, 0x32, 0x60, 0x80, 0x28, 0x00, 0x60, 0x90, 0x21, 0x32, 0x60, 0x80,
		0x21, 0x00, 0x60, 0x90, 0x25, 0x32, 0x60, 0x80, 0x25, 0x00, 0x60, 0x90,
		0x2A, 0x32, 0x60, 0x80, 0x2A, 0x00, 0x60, 0x90, 0x28, 0x32, 0x60, 0x80,
		0x28, 0x00, 0x60, 0x90, 0x24, 0x32, 0x60, 0x80, 0x24, 0x00, 0x60, 0x90,
		0x2B, 0x32, 0x60, 0x80, 0x2B, 0x00, 0x60, 0x90, 0x2A, 0x32, 0x60, 0x80,
		0x2A, 0x00, 0x60, 0x90, 0x28, 0x32, 0x60, 0x80, 0x28, 0x00, 0x60, 0x90,
		0x24, 0x32, 0x60, 0x80, 0x24, 0x00, 0x60, 0x90, 0x2B, 0x32, 0x60, 0x80,
		0x2B, 0x00, 0x60, 0x90, 0x2A, 0x32, 0x60, 0x80, 0x2A, 0x00, 0x60, 0x90,
		0x28, 0x32, 0x60, 0x80, 0x28, 0x00, 0x60, 0x90, 0x26, 0x32, 0x60, 0x80,
		0x26, 0x00, 0x60, 0x90, 0x2B, 0x32, 0x60, 0x80, 0x2B, 0x00, 0x60, 0x90,
		0x2A, 0x32, 0x60, 0x80, 0x2A, 0x00, 0x60, 0x90, 0x28, 0x32, 0x60, 0x80,
		0x28, 0x00, 0x60, 0x90, 0x26, 0x32, 0x60, 0x80, 0x26, 0x00, 0x60, 0x90,
		0x2D, 0x32, 0x60, 0x80, 0x2D, 0x00, 0x60, 0x90, 0x2A, 0x32, 0x60, 0x80,
		0x2A, 0x00, 0x60, 0x90, 0x28, 0x32, 0x60, 0x80, 0x28, 0x00, 0x60, 0x90,
		0x23, 0x32, 0x60, 0x80, 0x23, 0x00, 0x60, 0x90, 0x24, 0x32, 0x60, 0x80,
		0x24, 0x00, 0x60, 0x90, 0x2B, 0x32, 0x00, 0x90, 0x24, 0x32, 0x60, 0x80,
		0x2B, 0x00, 0x00, 0x80, 0x24, 0x00, 0x60, 0x90, 0x2B, 0x32, 0x00, 0x90,
		0x24, 0x32, 0x60, 0x80, 0x2B, 0x00, 0x00, 0x80, 0x24, 0x00, 0x60, 0x90,
		0x2B, 0x32, 0x00, 0x90, 0x24, 0x32, 0x60, 0x80, 0x2B, 0x00, 0x00, 0x80,
		0x24, 0x00, 0x60, 0x90, 0x2B, 0x32, 0x00, 0x90, 0x24, 0x32, 0x60, 0x80,
		0x2B, 0x00, 0x00, 0x80, 0x24, 0x00, 0x60, 0x90, 0x2B, 0x32, 0x00, 0x90,
		0x24, 0x32, 0x60, 0x80, 0x2B, 0x00, 0x00, 0x80, 0x24, 0x00, 0x60, 0x90,
		0x21, 0x32, 0x60, 0x80, 0x21, 0x00, 0x60, 0x90, 0x2B, 0x32, 0x00, 0x90,
		0x23, 0x32, 0x60, 0x80, 0x2B, 0x00, 0x00, 0x80, 0x23, 0x00, 0x82, 0x20,
		0x90, 0x2B, 0x32, 0x00, 0x90, 0x23, 0x32, 0x60, 0x80, 0x2B, 0x00, 0x00,
		0x80, 0x23, 0x00, 0x60, 0x90, 0x2B, 0x32, 0x00, 0x90, 0x23, 0x32, 0x60,
		0x80, 0x2B, 0x00, 0x00, 0x80, 0x23, 0x00, 0x60, 0x90, 0x2B, 0x32, 0x00,
		0x90, 0x23, 0x32, 0x60, 0x80, 0x2B, 0x00, 0x00, 0x80, 0x23, 0x00, 0x60,
		0x90, 0x2B, 0x32, 0x00, 0x90, 0x23, 0x32, 0x60, 0x80, 0x2B, 0x00, 0x00,
		0x80, 0x23, 0x00, 0x60, 0x90, 0x23, 0x32, 0x00, 0x90, 0x2B, 0x32, 0x60,
		0x80, 0x23, 0x00, 0x00, 0x80, 0x2B, 0x00, 0x60, 0x90, 0x23, 0x32, 0x00,
		0x90, 0x2B, 0x32, 0x60, 0x80, 0x23, 0x00, 0x00, 0x80, 0x2B, 0x00, 0x00,
		0xFF, 0x2F, 0x00, 0x4D, 0x54, 0x72, 0x6B, 0x00, 0x00, 0x00, 0x1A, 0x00,
		0xFF, 0x03, 0x0F, 0x41, 0x63, 0x6F, 0x75, 0x73, 0x74, 0x69, 0x63, 0x20,
		0x47, 0x75, 0x69, 0x74, 0x61, 0x72, 0x00, 0xC1, 0x18, 0x00, 0xFF, 0x2F,
		0x00, 0x4D, 0x54, 0x72, 0x6B, 0x00, 0x00, 0x00, 0x15, 0x00, 0xFF, 0x03,
		0x0A, 0x50, 0x65, 0x72, 0x63, 0x75, 0x73, 0x73, 0x69, 0x6F, 0x6E, 0x00,
		0xC9, 0x00, 0x00, 0xFF, 0x2F, 0x00, 0x4D, 0x54, 0x72, 0x6B, 0x00, 0x00,
		0x00, 0x17, 0x00, 0xFF, 0x03, 0x0C, 0x53, 0x6D, 0x6F, 0x6F, 0x74, 0x68,
		0x20, 0x53, 0x79, 0x6E, 0x74, 0x68, 0x00, 0xC3, 0x50, 0x00, 0xFF, 0x2F,
		0x00, 0x4D, 0x54, 0x72, 0x6B, 0x00, 0x00, 0x00, 0x1A, 0x00, 0xFF, 0x03,
		0x0F, 0x45, 0x6C, 0x65, 0x63, 0x74, 0x72, 0x69, 0x63, 0x20, 0x47, 0x75,
		0x69, 0x74, 0x61, 0x72, 0x00, 0xC4, 0x1D, 0x00, 0xFF, 0x2F, 0x00, 0x4D,
		0x54, 0x72, 0x6B, 0x00, 0x00, 0x00, 0x0F, 0x00, 0xFF, 0x03, 0x04, 0x42,
		0x61, 0x73, 0x73, 0x00, 0xC5, 0x20, 0x00, 0xFF, 0x2F, 0x00, 0x4D, 0x54,
		0x72, 0x6B, 0x00, 0x00, 0x00, 0x16, 0x00, 0xFF, 0x03, 0x0B, 0x53, 0x79,
		0x6E, 0x74, 0x68, 0x20, 0x50, 0x6C, 0x75, 0x63, 0x6B, 0x00, 0xC6, 0x57,
		0x00, 0xFF, 0x2F, 0x00, 0x4D, 0x54, 0x72, 0x6B, 0x00, 0x00, 0x00, 0x10,
		0x00, 0xFF, 0x03, 0x05, 0x53, 0x63, 0x69, 0x66, 0x69, 0x00, 0xC7, 0x63,
		0x00, 0xFF, 0x2F, 0x00, 0x4D, 0x54, 0x72, 0x6B, 0x00, 0x00, 0x00, 0x16,
		0x00, 0xFF, 0x03, 0x0B, 0x47, 0x72, 0x61, 0x6E, 0x64, 0x20, 0x50, 0x69,
		0x61, 0x6E, 0x6F, 0x00, 0xC8, 0x00, 0x00, 0xFF, 0x2F, 0x00, 0x4D, 0x54,
		0x72, 0x6B, 0x00, 0x00, 0x00, 0x16, 0x00, 0xFF, 0x03, 0x0B, 0x46, 0x72,
		0x65, 0x6E, 0x63, 0x68, 0x20, 0x48, 0x6F, 0x72, 0x6E, 0x00, 0xC2, 0x3C,
		0x00, 0xFF, 0x2F, 0x00, 0x4D, 0x54, 0x72, 0x6B, 0x00, 0x00, 0x00, 0x13,
		0x00, 0xFF, 0x03, 0x08, 0x54, 0x72, 0x6F, 0x6D, 0x62, 0x6F, 0x6E, 0x65,
		0x00, 0xCA, 0x39, 0x00, 0xFF, 0x2F, 0x00, 0x4D, 0x54, 0x72, 0x6B, 0x00,
		0x00, 0x00, 0x11, 0x00, 0xFF, 0x03, 0x06, 0x56, 0x69, 0x6F, 0x6C, 0x69,
		0x6E, 0x00, 0xCB, 0x28, 0x00, 0xFF, 0x2F, 0x00, 0x4D, 0x54, 0x72, 0x6B,
		0x00, 0x00, 0x00, 0x10, 0x00, 0xFF, 0x03, 0x05, 0x43, 0x65, 0x6C, 0x6C,
		0x6F, 0x00, 0xCC, 0x2A, 0x00, 0xFF, 0x2F, 0x00
};

// Here Comes the Sun (Slow)
unsigned char song3[1024] =
{
		0x4D, 0x54, 0x68, 0x64, 0x00, 0x00, 0x00, 0x06, 0x00, 0x01, 0x00, 0x0E,
		0x01, 0x80, 0x4D, 0x54, 0x72, 0x6B, 0x00, 0x00, 0x00, 0x13, 0x00, 0xFF,
		0x58, 0x04, 0x04, 0x02, 0x18, 0x08, 0x00, 0xFF, 0x51, 0x03, 0x08, 0x52,
		0xAE, 0x00, 0xFF, 0x2F, 0x00, 0x4D, 0x54, 0x72, 0x6B, 0x00, 0x00, 0x01,
		0x38, 0x00, 0xFF, 0x03, 0x0E, 0x45, 0x6C, 0x65, 0x63, 0x74, 0x72, 0x69,
		0x63, 0x20, 0x50, 0x69, 0x61, 0x6E, 0x6F, 0x00, 0xC0, 0x00, 0x00, 0x90,
		0x2F, 0x32, 0x60, 0x80, 0x2F, 0x00, 0x82, 0x20, 0x90, 0x2D, 0x32, 0x60,
		0x80, 0x2D, 0x00, 0x82, 0x20, 0x90, 0x2F, 0x32, 0x60, 0x80, 0x2F, 0x00,
		0x82, 0x20, 0x90, 0x2B, 0x32, 0x60, 0x80, 0x2B, 0x00, 0x82, 0x20, 0x90,
		0x2F, 0x32, 0x60, 0x80, 0x2F, 0x00, 0x60, 0x90, 0x2B, 0x32, 0x60, 0x80,
		0x2B, 0x00, 0x60, 0x90, 0x2D, 0x32, 0x60, 0x80, 0x2D, 0x00, 0x82, 0x20,
		0x90, 0x2F, 0x32, 0x60, 0x80, 0x2F, 0x00, 0x85, 0x20, 0x90, 0x2F, 0x32,
		0x60, 0x80, 0x2F, 0x00, 0x82, 0x20, 0x90, 0x2D, 0x32, 0x60, 0x80, 0x2D,
		0x00, 0x82, 0x20, 0x90, 0x2F, 0x32, 0x60, 0x80, 0x2F, 0x00, 0x82, 0x20,
		0x90, 0x2B, 0x32, 0x60, 0x80, 0x2B, 0x00, 0x83, 0x60, 0x90, 0x2B, 0x32,
		0x60, 0x80, 0x2B, 0x00, 0x60, 0x90, 0x2D, 0x32, 0x60, 0x80, 0x2D, 0x00,
		0x82, 0x20, 0x90, 0x2B, 0x32, 0x60, 0x80, 0x2B, 0x00, 0x85, 0x20, 0x90,
		0x2F, 0x32, 0x60, 0x80, 0x2F, 0x00, 0x82, 0x20, 0x90, 0x2D, 0x32, 0x60,
		0x80, 0x2D, 0x00, 0x82, 0x20, 0x90, 0x2B, 0x32, 0x60, 0x80, 0x2B, 0x00,
		0x82, 0x20, 0x90, 0x34, 0x32, 0x60, 0x80, 0x34, 0x00, 0x60, 0x90, 0x37,
		0x32, 0x60, 0x80, 0x37, 0x00, 0x60, 0x90, 0x39, 0x32, 0x60, 0x80, 0x39,
		0x00, 0x60, 0x90, 0x32, 0x32, 0x60, 0x80, 0x32, 0x00, 0x60, 0x90, 0x37,
		0x32, 0x60, 0x80, 0x37, 0x00, 0x60, 0x90, 0x39, 0x32, 0x60, 0x80, 0x39,
		0x00, 0x60, 0x90, 0x24, 0x32, 0x60, 0x80, 0x24, 0x00, 0x60, 0x90, 0x37,
		0x32, 0x60, 0x80, 0x37, 0x00, 0x60, 0x90, 0x39, 0x32, 0x60, 0x80, 0x39,
		0x00, 0x60, 0x90, 0x32, 0x32, 0x60, 0x80, 0x32, 0x00, 0x60, 0x90, 0x37,
		0x32, 0x60, 0x80, 0x37, 0x00, 0x60, 0x90, 0x39, 0x32, 0x60, 0x80, 0x39,
		0x00, 0x60, 0x90, 0x37, 0x32, 0x60, 0x80, 0x37, 0x00, 0x60, 0x90, 0x36,
		0x32, 0x60, 0x80, 0x36, 0x00, 0x60, 0x90, 0x34, 0x32, 0x60, 0x80, 0x34,
		0x00, 0x60, 0x90, 0x32, 0x32, 0x60, 0x80, 0x32, 0x00, 0x00, 0xFF, 0x2F,
		0x00, 0x4D, 0x54, 0x72, 0x6B, 0x00, 0x00, 0x00, 0x1A, 0x00, 0xFF, 0x03,
		0x0F, 0x41, 0x63, 0x6F, 0x75, 0x73, 0x74, 0x69, 0x63, 0x20, 0x47, 0x75,
		0x69, 0x74, 0x61, 0x72, 0x00, 0xC1, 0x18, 0x00, 0xFF, 0x2F, 0x00, 0x4D,
		0x54, 0x72, 0x6B, 0x00, 0x00, 0x00, 0x15, 0x00, 0xFF, 0x03, 0x0A, 0x50,
		0x65, 0x72, 0x63, 0x75, 0x73, 0x73, 0x69, 0x6F, 0x6E, 0x00, 0xC9, 0x00,
		0x00, 0xFF, 0x2F, 0x00, 0x4D, 0x54, 0x72, 0x6B, 0x00, 0x00, 0x00, 0x17,
		0x00, 0xFF, 0x03, 0x0C, 0x53, 0x6D, 0x6F, 0x6F, 0x74, 0x68, 0x20, 0x53,
		0x79, 0x6E, 0x74, 0x68, 0x00, 0xC3, 0x50, 0x00, 0xFF, 0x2F, 0x00, 0x4D,
		0x54, 0x72, 0x6B, 0x00, 0x00, 0x00, 0x1A, 0x00, 0xFF, 0x03, 0x0F, 0x45,
		0x6C, 0x65, 0x63, 0x74, 0x72, 0x69, 0x63, 0x20, 0x47, 0x75, 0x69, 0x74,
		0x61, 0x72, 0x00, 0xC4, 0x1D, 0x00, 0xFF, 0x2F, 0x00, 0x4D, 0x54, 0x72,
		0x6B, 0x00, 0x00, 0x00, 0x0F, 0x00, 0xFF, 0x03, 0x04, 0x42, 0x61, 0x73,
		0x73, 0x00, 0xC5, 0x20, 0x00, 0xFF, 0x2F, 0x00, 0x4D, 0x54, 0x72, 0x6B,
		0x00, 0x00, 0x00, 0x16, 0x00, 0xFF, 0x03, 0x0B, 0x53, 0x79, 0x6E, 0x74,
		0x68, 0x20, 0x50, 0x6C, 0x75, 0x63, 0x6B, 0x00, 0xC6, 0x57, 0x00, 0xFF,
		0x2F, 0x00, 0x4D, 0x54, 0x72, 0x6B, 0x00, 0x00, 0x00, 0x10, 0x00, 0xFF,
		0x03, 0x05, 0x53, 0x63, 0x69, 0x66, 0x69, 0x00, 0xC7, 0x63, 0x00, 0xFF,
		0x2F, 0x00, 0x4D, 0x54, 0x72, 0x6B, 0x00, 0x00, 0x00, 0x16, 0x00, 0xFF,
		0x03, 0x0B, 0x47, 0x72, 0x61, 0x6E, 0x64, 0x20, 0x50, 0x69, 0x61, 0x6E,
		0x6F, 0x00, 0xC8, 0x00, 0x00, 0xFF, 0x2F, 0x00, 0x4D, 0x54, 0x72, 0x6B,
		0x00, 0x00, 0x00, 0x16, 0x00, 0xFF, 0x03, 0x0B, 0x46, 0x72, 0x65, 0x6E,
		0x63, 0x68, 0x20, 0x48, 0x6F, 0x72, 0x6E, 0x00, 0xC2, 0x3C, 0x00, 0xFF,
		0x2F, 0x00, 0x4D, 0x54, 0x72, 0x6B, 0x00, 0x00, 0x00, 0x13, 0x00, 0xFF,
		0x03, 0x08, 0x54, 0x72, 0x6F, 0x6D, 0x62, 0x6F, 0x6E, 0x65, 0x00, 0xCA,
		0x39, 0x00, 0xFF, 0x2F, 0x00, 0x4D, 0x54, 0x72, 0x6B, 0x00, 0x00, 0x00,
		0x11, 0x00, 0xFF, 0x03, 0x06, 0x56, 0x69, 0x6F, 0x6C, 0x69, 0x6E, 0x00,
		0xCB, 0x28, 0x00, 0xFF, 0x2F, 0x00, 0x4D, 0x54, 0x72, 0x6B, 0x00, 0x00,
		0x00, 0x10, 0x00, 0xFF, 0x03, 0x05, 0x43, 0x65, 0x6C, 0x6C, 0x6F, 0x00,
		0xCC, 0x2A, 0x00, 0xFF, 0x2F, 0x00
};


// Here Comes The Sun (Fast)
unsigned char song4[1024] = {
		0x4D, 0x54, 0x68, 0x64, 0x00, 0x00, 0x00, 0x06, 0x00, 0x01, 0x00, 0x0E,
		0x01, 0x80, 0x4D, 0x54, 0x72, 0x6B, 0x00, 0x00, 0x00, 0x13, 0x00, 0xFF,
		0x58, 0x04, 0x04, 0x02, 0x18, 0x08, 0x00, 0xFF, 0x51, 0x03, 0x10, 0xA5,
		0x5D, 0x00, 0xFF, 0x2F, 0x00, 0x4D, 0x54, 0x72, 0x6B, 0x00, 0x00, 0x01,
		0x38, 0x00, 0xFF, 0x03, 0x0E, 0x45, 0x6C, 0x65, 0x63, 0x74, 0x72, 0x69,
		0x63, 0x20, 0x50, 0x69, 0x61, 0x6E, 0x6F, 0x00, 0xC0, 0x00, 0x00, 0x90,
		0x2F, 0x32, 0x60, 0x80, 0x2F, 0x00, 0x82, 0x20, 0x90, 0x2D, 0x32, 0x60,
		0x80, 0x2D, 0x00, 0x82, 0x20, 0x90, 0x2F, 0x32, 0x60, 0x80, 0x2F, 0x00,
		0x82, 0x20, 0x90, 0x2B, 0x32, 0x60, 0x80, 0x2B, 0x00, 0x82, 0x20, 0x90,
		0x2F, 0x32, 0x60, 0x80, 0x2F, 0x00, 0x60, 0x90, 0x2B, 0x32, 0x60, 0x80,
		0x2B, 0x00, 0x60, 0x90, 0x2D, 0x32, 0x60, 0x80, 0x2D, 0x00, 0x82, 0x20,
		0x90, 0x2F, 0x32, 0x60, 0x80, 0x2F, 0x00, 0x85, 0x20, 0x90, 0x2F, 0x32,
		0x60, 0x80, 0x2F, 0x00, 0x82, 0x20, 0x90, 0x2D, 0x32, 0x60, 0x80, 0x2D,
		0x00, 0x82, 0x20, 0x90, 0x2F, 0x32, 0x60, 0x80, 0x2F, 0x00, 0x82, 0x20,
		0x90, 0x2B, 0x32, 0x60, 0x80, 0x2B, 0x00, 0x83, 0x60, 0x90, 0x2B, 0x32,
		0x60, 0x80, 0x2B, 0x00, 0x60, 0x90, 0x2D, 0x32, 0x60, 0x80, 0x2D, 0x00,
		0x82, 0x20, 0x90, 0x2B, 0x32, 0x60, 0x80, 0x2B, 0x00, 0x85, 0x20, 0x90,
		0x2F, 0x32, 0x60, 0x80, 0x2F, 0x00, 0x82, 0x20, 0x90, 0x2D, 0x32, 0x60,
		0x80, 0x2D, 0x00, 0x82, 0x20, 0x90, 0x2B, 0x32, 0x60, 0x80, 0x2B, 0x00,
		0x82, 0x20, 0x90, 0x34, 0x32, 0x60, 0x80, 0x34, 0x00, 0x60, 0x90, 0x37,
		0x32, 0x60, 0x80, 0x37, 0x00, 0x60, 0x90, 0x39, 0x32, 0x60, 0x80, 0x39,
		0x00, 0x60, 0x90, 0x32, 0x32, 0x60, 0x80, 0x32, 0x00, 0x60, 0x90, 0x37,
		0x32, 0x60, 0x80, 0x37, 0x00, 0x60, 0x90, 0x39, 0x32, 0x60, 0x80, 0x39,
		0x00, 0x60, 0x90, 0x24, 0x32, 0x60, 0x80, 0x24, 0x00, 0x60, 0x90, 0x37,
		0x32, 0x60, 0x80, 0x37, 0x00, 0x60, 0x90, 0x39, 0x32, 0x60, 0x80, 0x39,
		0x00, 0x60, 0x90, 0x32, 0x32, 0x60, 0x80, 0x32, 0x00, 0x60, 0x90, 0x37,
		0x32, 0x60, 0x80, 0x37, 0x00, 0x60, 0x90, 0x39, 0x32, 0x60, 0x80, 0x39,
		0x00, 0x60, 0x90, 0x37, 0x32, 0x60, 0x80, 0x37, 0x00, 0x60, 0x90, 0x36,
		0x32, 0x60, 0x80, 0x36, 0x00, 0x60, 0x90, 0x34, 0x32, 0x60, 0x80, 0x34,
		0x00, 0x60, 0x90, 0x32, 0x32, 0x60, 0x80, 0x32, 0x00, 0x00, 0xFF, 0x2F,
		0x00, 0x4D, 0x54, 0x72, 0x6B, 0x00, 0x00, 0x00, 0x1A, 0x00, 0xFF, 0x03,
		0x0F, 0x41, 0x63, 0x6F, 0x75, 0x73, 0x74, 0x69, 0x63, 0x20, 0x47, 0x75,
		0x69, 0x74, 0x61, 0x72, 0x00, 0xC1, 0x18, 0x00, 0xFF, 0x2F, 0x00, 0x4D,
		0x54, 0x72, 0x6B, 0x00, 0x00, 0x00, 0x15, 0x00, 0xFF, 0x03, 0x0A, 0x50,
		0x65, 0x72, 0x63, 0x75, 0x73, 0x73, 0x69, 0x6F, 0x6E, 0x00, 0xC9, 0x00,
		0x00, 0xFF, 0x2F, 0x00, 0x4D, 0x54, 0x72, 0x6B, 0x00, 0x00, 0x00, 0x17,
		0x00, 0xFF, 0x03, 0x0C, 0x53, 0x6D, 0x6F, 0x6F, 0x74, 0x68, 0x20, 0x53,
		0x79, 0x6E, 0x74, 0x68, 0x00, 0xC3, 0x50, 0x00, 0xFF, 0x2F, 0x00, 0x4D,
		0x54, 0x72, 0x6B, 0x00, 0x00, 0x00, 0x1A, 0x00, 0xFF, 0x03, 0x0F, 0x45,
		0x6C, 0x65, 0x63, 0x74, 0x72, 0x69, 0x63, 0x20, 0x47, 0x75, 0x69, 0x74,
		0x61, 0x72, 0x00, 0xC4, 0x1D, 0x00, 0xFF, 0x2F, 0x00, 0x4D, 0x54, 0x72,
		0x6B, 0x00, 0x00, 0x00, 0x0F, 0x00, 0xFF, 0x03, 0x04, 0x42, 0x61, 0x73,
		0x73, 0x00, 0xC5, 0x20, 0x00, 0xFF, 0x2F, 0x00, 0x4D, 0x54, 0x72, 0x6B,
		0x00, 0x00, 0x00, 0x16, 0x00, 0xFF, 0x03, 0x0B, 0x53, 0x79, 0x6E, 0x74,
		0x68, 0x20, 0x50, 0x6C, 0x75, 0x63, 0x6B, 0x00, 0xC6, 0x57, 0x00, 0xFF,
		0x2F, 0x00, 0x4D, 0x54, 0x72, 0x6B, 0x00, 0x00, 0x00, 0x10, 0x00, 0xFF,
		0x03, 0x05, 0x53, 0x63, 0x69, 0x66, 0x69, 0x00, 0xC7, 0x63, 0x00, 0xFF,
		0x2F, 0x00, 0x4D, 0x54, 0x72, 0x6B, 0x00, 0x00, 0x00, 0x16, 0x00, 0xFF,
		0x03, 0x0B, 0x47, 0x72, 0x61, 0x6E, 0x64, 0x20, 0x50, 0x69, 0x61, 0x6E,
		0x6F, 0x00, 0xC8, 0x00, 0x00, 0xFF, 0x2F, 0x00, 0x4D, 0x54, 0x72, 0x6B,
		0x00, 0x00, 0x00, 0x16, 0x00, 0xFF, 0x03, 0x0B, 0x46, 0x72, 0x65, 0x6E,
		0x63, 0x68, 0x20, 0x48, 0x6F, 0x72, 0x6E, 0x00, 0xC2, 0x3C, 0x00, 0xFF,
		0x2F, 0x00, 0x4D, 0x54, 0x72, 0x6B, 0x00, 0x00, 0x00, 0x13, 0x00, 0xFF,
		0x03, 0x08, 0x54, 0x72, 0x6F, 0x6D, 0x62, 0x6F, 0x6E, 0x65, 0x00, 0xCA,
		0x39, 0x00, 0xFF, 0x2F, 0x00, 0x4D, 0x54, 0x72, 0x6B, 0x00, 0x00, 0x00,
		0x11, 0x00, 0xFF, 0x03, 0x06, 0x56, 0x69, 0x6F, 0x6C, 0x69, 0x6E, 0x00,
		0xCB, 0x28, 0x00, 0xFF, 0x2F, 0x00, 0x4D, 0x54, 0x72, 0x6B, 0x00, 0x00,
		0x00, 0x10, 0x00, 0xFF, 0x03, 0x05, 0x43, 0x65, 0x6C, 0x6C, 0x6F, 0x00,
		0xCC, 0x2A, 0x00, 0xFF, 0x2F, 0x00
};



#endif /* SONG_FILE_H_ */
